<?xml version="1.0" encoding="utf-8" standalone="no"?>
<!DOCTYPE svg PUBLIC "-//W3C//DTD SVG 1.1//EN"
  "http://www.w3.org/Graphics/SVG/1.1/DTD/svg11.dtd">
<svg xmlns:xlink="http://www.w3.org/1999/xlink" width="360pt" height="288pt" viewBox="0 0 360 288" xmlns="http://www.w3.org/2000/svg" version="1.1">
 <metadata>
  <rdf:RDF xmlns:dc="http://purl.org/dc/elements/1.1/" xmlns:cc="http://creativecommons.org/ns#" xmlns:rdf="http://www.w3.org/1999/02/22-rdf-syntax-ns#">
   <cc:Work>
    <dc:type rdf:resource="http://purl.org/dc/dcmitype/StillImage"/>
    <dc:date>2022-11-02T15:16:30.382169</dc:date>
    <dc:format>image/svg+xml</dc:format>
    <dc:creator>
     <cc:Agent>
      <dc:title>Matplotlib v3.5.1, https://matplotlib.org/</dc:title>
     </cc:Agent>
    </dc:creator>
   </cc:Work>
  </rdf:RDF>
 </metadata>
 <defs>
  <style type="text/css">*{stroke-linejoin: round; stroke-linecap: butt}</style>
 </defs>
 <g id="figure_1">
  <g id="patch_1">
   <path d="M 0 288 
L 360 288 
L 360 0 
L 0 0 
z
" style="fill: #ffffff"/>
  </g>
  <g id="axes_1">
   <g id="patch_2">
    <path d="M 47.81 246.04 
L 339.615 246.04 
L 339.615 14.76 
L 47.81 14.76 
z
" style="fill: #ffffff"/>
   </g>
   <g id="matplotlib.axis_1">
    <g id="xtick_1">
     <g id="line2d_1">
      <defs>
       <path id="mb165acd3c1" d="M 0 0 
L 0 3.5 
" style="stroke: #000000; stroke-width: 0.8"/>
      </defs>
      <g>
       <use xlink:href="#mb165acd3c1" x="47.81" y="246.04" style="stroke: #000000; stroke-width: 0.8"/>
      </g>
     </g>
     <g id="text_1">
      <!-- 0 -->
      <g transform="translate(44.62875 260.638438)scale(0.1 -0.1)">
       <defs>
        <path id="DejaVuSans-30" d="M 2034 4250 
Q 1547 4250 1301 3770 
Q 1056 3291 1056 2328 
Q 1056 1369 1301 889 
Q 1547 409 2034 409 
Q 2525 409 2770 889 
Q 3016 1369 3016 2328 
Q 3016 3291 2770 3770 
Q 2525 4250 2034 4250 
z
M 2034 4750 
Q 2819 4750 3233 4129 
Q 3647 3509 3647 2328 
Q 3647 1150 3233 529 
Q 2819 -91 2034 -91 
Q 1250 -91 836 529 
Q 422 1150 422 2328 
Q 422 3509 836 4129 
Q 1250 4750 2034 4750 
z
" transform="scale(0.015625)"/>
       </defs>
       <use xlink:href="#DejaVuSans-30"/>
      </g>
     </g>
    </g>
    <g id="xtick_2">
     <g id="line2d_2">
      <g>
       <use xlink:href="#mb165acd3c1" x="106.171" y="246.04" style="stroke: #000000; stroke-width: 0.8"/>
      </g>
     </g>
     <g id="text_2">
      <!-- 40 -->
      <g transform="translate(99.8085 260.638438)scale(0.1 -0.1)">
       <defs>
        <path id="DejaVuSans-34" d="M 2419 4116 
L 825 1625 
L 2419 1625 
L 2419 4116 
z
M 2253 4666 
L 3047 4666 
L 3047 1625 
L 3713 1625 
L 3713 1100 
L 3047 1100 
L 3047 0 
L 2419 0 
L 2419 1100 
L 313 1100 
L 313 1709 
L 2253 4666 
z
" transform="scale(0.015625)"/>
       </defs>
       <use xlink:href="#DejaVuSans-34"/>
       <use xlink:href="#DejaVuSans-30" x="63.623047"/>
      </g>
     </g>
    </g>
    <g id="xtick_3">
     <g id="line2d_3">
      <g>
       <use xlink:href="#mb165acd3c1" x="164.532" y="246.04" style="stroke: #000000; stroke-width: 0.8"/>
      </g>
     </g>
     <g id="text_3">
      <!-- 80 -->
      <g transform="translate(158.1695 260.638438)scale(0.1 -0.1)">
       <defs>
        <path id="DejaVuSans-38" d="M 2034 2216 
Q 1584 2216 1326 1975 
Q 1069 1734 1069 1313 
Q 1069 891 1326 650 
Q 1584 409 2034 409 
Q 2484 409 2743 651 
Q 3003 894 3003 1313 
Q 3003 1734 2745 1975 
Q 2488 2216 2034 2216 
z
M 1403 2484 
Q 997 2584 770 2862 
Q 544 3141 544 3541 
Q 544 4100 942 4425 
Q 1341 4750 2034 4750 
Q 2731 4750 3128 4425 
Q 3525 4100 3525 3541 
Q 3525 3141 3298 2862 
Q 3072 2584 2669 2484 
Q 3125 2378 3379 2068 
Q 3634 1759 3634 1313 
Q 3634 634 3220 271 
Q 2806 -91 2034 -91 
Q 1263 -91 848 271 
Q 434 634 434 1313 
Q 434 1759 690 2068 
Q 947 2378 1403 2484 
z
M 1172 3481 
Q 1172 3119 1398 2916 
Q 1625 2713 2034 2713 
Q 2441 2713 2670 2916 
Q 2900 3119 2900 3481 
Q 2900 3844 2670 4047 
Q 2441 4250 2034 4250 
Q 1625 4250 1398 4047 
Q 1172 3844 1172 3481 
z
" transform="scale(0.015625)"/>
       </defs>
       <use xlink:href="#DejaVuSans-38"/>
       <use xlink:href="#DejaVuSans-30" x="63.623047"/>
      </g>
     </g>
    </g>
    <g id="xtick_4">
     <g id="line2d_4">
      <g>
       <use xlink:href="#mb165acd3c1" x="222.893" y="246.04" style="stroke: #000000; stroke-width: 0.8"/>
      </g>
     </g>
     <g id="text_4">
      <!-- 120 -->
      <g transform="translate(213.34925 260.638438)scale(0.1 -0.1)">
       <defs>
        <path id="DejaVuSans-31" d="M 794 531 
L 1825 531 
L 1825 4091 
L 703 3866 
L 703 4441 
L 1819 4666 
L 2450 4666 
L 2450 531 
L 3481 531 
L 3481 0 
L 794 0 
L 794 531 
z
" transform="scale(0.015625)"/>
        <path id="DejaVuSans-32" d="M 1228 531 
L 3431 531 
L 3431 0 
L 469 0 
L 469 531 
Q 828 903 1448 1529 
Q 2069 2156 2228 2338 
Q 2531 2678 2651 2914 
Q 2772 3150 2772 3378 
Q 2772 3750 2511 3984 
Q 2250 4219 1831 4219 
Q 1534 4219 1204 4116 
Q 875 4013 500 3803 
L 500 4441 
Q 881 4594 1212 4672 
Q 1544 4750 1819 4750 
Q 2544 4750 2975 4387 
Q 3406 4025 3406 3419 
Q 3406 3131 3298 2873 
Q 3191 2616 2906 2266 
Q 2828 2175 2409 1742 
Q 1991 1309 1228 531 
z
" transform="scale(0.015625)"/>
       </defs>
       <use xlink:href="#DejaVuSans-31"/>
       <use xlink:href="#DejaVuSans-32" x="63.623047"/>
       <use xlink:href="#DejaVuSans-30" x="127.246094"/>
      </g>
     </g>
    </g>
    <g id="xtick_5">
     <g id="line2d_5">
      <g>
       <use xlink:href="#mb165acd3c1" x="281.254" y="246.04" style="stroke: #000000; stroke-width: 0.8"/>
      </g>
     </g>
     <g id="text_5">
      <!-- 160 -->
      <g transform="translate(271.71025 260.638438)scale(0.1 -0.1)">
       <defs>
        <path id="DejaVuSans-36" d="M 2113 2584 
Q 1688 2584 1439 2293 
Q 1191 2003 1191 1497 
Q 1191 994 1439 701 
Q 1688 409 2113 409 
Q 2538 409 2786 701 
Q 3034 994 3034 1497 
Q 3034 2003 2786 2293 
Q 2538 2584 2113 2584 
z
M 3366 4563 
L 3366 3988 
Q 3128 4100 2886 4159 
Q 2644 4219 2406 4219 
Q 1781 4219 1451 3797 
Q 1122 3375 1075 2522 
Q 1259 2794 1537 2939 
Q 1816 3084 2150 3084 
Q 2853 3084 3261 2657 
Q 3669 2231 3669 1497 
Q 3669 778 3244 343 
Q 2819 -91 2113 -91 
Q 1303 -91 875 529 
Q 447 1150 447 2328 
Q 447 3434 972 4092 
Q 1497 4750 2381 4750 
Q 2619 4750 2861 4703 
Q 3103 4656 3366 4563 
z
" transform="scale(0.015625)"/>
       </defs>
       <use xlink:href="#DejaVuSans-31"/>
       <use xlink:href="#DejaVuSans-36" x="63.623047"/>
       <use xlink:href="#DejaVuSans-30" x="127.246094"/>
      </g>
     </g>
    </g>
    <g id="xtick_6">
     <g id="line2d_6">
      <g>
       <use xlink:href="#mb165acd3c1" x="339.615" y="246.04" style="stroke: #000000; stroke-width: 0.8"/>
      </g>
     </g>
     <g id="text_6">
      <!-- 200 -->
      <g transform="translate(330.07125 260.638438)scale(0.1 -0.1)">
       <use xlink:href="#DejaVuSans-32"/>
       <use xlink:href="#DejaVuSans-30" x="63.623047"/>
       <use xlink:href="#DejaVuSans-30" x="127.246094"/>
      </g>
     </g>
    </g>
    <g id="text_7">
     <!-- Iteration -->
     <g transform="translate(172.503906 274.316562)scale(0.1 -0.1)">
      <defs>
       <path id="DejaVuSans-49" d="M 628 4666 
L 1259 4666 
L 1259 0 
L 628 0 
L 628 4666 
z
" transform="scale(0.015625)"/>
       <path id="DejaVuSans-74" d="M 1172 4494 
L 1172 3500 
L 2356 3500 
L 2356 3053 
L 1172 3053 
L 1172 1153 
Q 1172 725 1289 603 
Q 1406 481 1766 481 
L 2356 481 
L 2356 0 
L 1766 0 
Q 1100 0 847 248 
Q 594 497 594 1153 
L 594 3053 
L 172 3053 
L 172 3500 
L 594 3500 
L 594 4494 
L 1172 4494 
z
" transform="scale(0.015625)"/>
       <path id="DejaVuSans-65" d="M 3597 1894 
L 3597 1613 
L 953 1613 
Q 991 1019 1311 708 
Q 1631 397 2203 397 
Q 2534 397 2845 478 
Q 3156 559 3463 722 
L 3463 178 
Q 3153 47 2828 -22 
Q 2503 -91 2169 -91 
Q 1331 -91 842 396 
Q 353 884 353 1716 
Q 353 2575 817 3079 
Q 1281 3584 2069 3584 
Q 2775 3584 3186 3129 
Q 3597 2675 3597 1894 
z
M 3022 2063 
Q 3016 2534 2758 2815 
Q 2500 3097 2075 3097 
Q 1594 3097 1305 2825 
Q 1016 2553 972 2059 
L 3022 2063 
z
" transform="scale(0.015625)"/>
       <path id="DejaVuSans-72" d="M 2631 2963 
Q 2534 3019 2420 3045 
Q 2306 3072 2169 3072 
Q 1681 3072 1420 2755 
Q 1159 2438 1159 1844 
L 1159 0 
L 581 0 
L 581 3500 
L 1159 3500 
L 1159 2956 
Q 1341 3275 1631 3429 
Q 1922 3584 2338 3584 
Q 2397 3584 2469 3576 
Q 2541 3569 2628 3553 
L 2631 2963 
z
" transform="scale(0.015625)"/>
       <path id="DejaVuSans-61" d="M 2194 1759 
Q 1497 1759 1228 1600 
Q 959 1441 959 1056 
Q 959 750 1161 570 
Q 1363 391 1709 391 
Q 2188 391 2477 730 
Q 2766 1069 2766 1631 
L 2766 1759 
L 2194 1759 
z
M 3341 1997 
L 3341 0 
L 2766 0 
L 2766 531 
Q 2569 213 2275 61 
Q 1981 -91 1556 -91 
Q 1019 -91 701 211 
Q 384 513 384 1019 
Q 384 1609 779 1909 
Q 1175 2209 1959 2209 
L 2766 2209 
L 2766 2266 
Q 2766 2663 2505 2880 
Q 2244 3097 1772 3097 
Q 1472 3097 1187 3025 
Q 903 2953 641 2809 
L 641 3341 
Q 956 3463 1253 3523 
Q 1550 3584 1831 3584 
Q 2591 3584 2966 3190 
Q 3341 2797 3341 1997 
z
" transform="scale(0.015625)"/>
       <path id="DejaVuSans-69" d="M 603 3500 
L 1178 3500 
L 1178 0 
L 603 0 
L 603 3500 
z
M 603 4863 
L 1178 4863 
L 1178 4134 
L 603 4134 
L 603 4863 
z
" transform="scale(0.015625)"/>
       <path id="DejaVuSans-6f" d="M 1959 3097 
Q 1497 3097 1228 2736 
Q 959 2375 959 1747 
Q 959 1119 1226 758 
Q 1494 397 1959 397 
Q 2419 397 2687 759 
Q 2956 1122 2956 1747 
Q 2956 2369 2687 2733 
Q 2419 3097 1959 3097 
z
M 1959 3584 
Q 2709 3584 3137 3096 
Q 3566 2609 3566 1747 
Q 3566 888 3137 398 
Q 2709 -91 1959 -91 
Q 1206 -91 779 398 
Q 353 888 353 1747 
Q 353 2609 779 3096 
Q 1206 3584 1959 3584 
z
" transform="scale(0.015625)"/>
       <path id="DejaVuSans-6e" d="M 3513 2113 
L 3513 0 
L 2938 0 
L 2938 2094 
Q 2938 2591 2744 2837 
Q 2550 3084 2163 3084 
Q 1697 3084 1428 2787 
Q 1159 2491 1159 1978 
L 1159 0 
L 581 0 
L 581 3500 
L 1159 3500 
L 1159 2956 
Q 1366 3272 1645 3428 
Q 1925 3584 2291 3584 
Q 2894 3584 3203 3211 
Q 3513 2838 3513 2113 
z
" transform="scale(0.015625)"/>
      </defs>
      <use xlink:href="#DejaVuSans-49"/>
      <use xlink:href="#DejaVuSans-74" x="29.492188"/>
      <use xlink:href="#DejaVuSans-65" x="68.701172"/>
      <use xlink:href="#DejaVuSans-72" x="130.224609"/>
      <use xlink:href="#DejaVuSans-61" x="171.337891"/>
      <use xlink:href="#DejaVuSans-74" x="232.617188"/>
      <use xlink:href="#DejaVuSans-69" x="271.826172"/>
      <use xlink:href="#DejaVuSans-6f" x="299.609375"/>
      <use xlink:href="#DejaVuSans-6e" x="360.791016"/>
     </g>
    </g>
   </g>
   <g id="matplotlib.axis_2">
    <g id="ytick_1">
     <g id="line2d_7">
      <defs>
       <path id="mfeb10149df" d="M 0 0 
L -3.5 0 
" style="stroke: #000000; stroke-width: 0.8"/>
      </defs>
      <g>
       <use xlink:href="#mfeb10149df" x="47.81" y="246.04" style="stroke: #000000; stroke-width: 0.8"/>
      </g>
     </g>
     <g id="text_8">
      <!-- 0.0 -->
      <g transform="translate(24.906875 249.839219)scale(0.1 -0.1)">
       <defs>
        <path id="DejaVuSans-2e" d="M 684 794 
L 1344 794 
L 1344 0 
L 684 0 
L 684 794 
z
" transform="scale(0.015625)"/>
       </defs>
       <use xlink:href="#DejaVuSans-30"/>
       <use xlink:href="#DejaVuSans-2e" x="63.623047"/>
       <use xlink:href="#DejaVuSans-30" x="95.410156"/>
      </g>
     </g>
    </g>
    <g id="ytick_2">
     <g id="line2d_8">
      <g>
       <use xlink:href="#mfeb10149df" x="47.81" y="199.784" style="stroke: #000000; stroke-width: 0.8"/>
      </g>
     </g>
     <g id="text_9">
      <!-- 0.2 -->
      <g transform="translate(24.906875 203.583219)scale(0.1 -0.1)">
       <use xlink:href="#DejaVuSans-30"/>
       <use xlink:href="#DejaVuSans-2e" x="63.623047"/>
       <use xlink:href="#DejaVuSans-32" x="95.410156"/>
      </g>
     </g>
    </g>
    <g id="ytick_3">
     <g id="line2d_9">
      <g>
       <use xlink:href="#mfeb10149df" x="47.81" y="153.528" style="stroke: #000000; stroke-width: 0.8"/>
      </g>
     </g>
     <g id="text_10">
      <!-- 0.4 -->
      <g transform="translate(24.906875 157.327219)scale(0.1 -0.1)">
       <use xlink:href="#DejaVuSans-30"/>
       <use xlink:href="#DejaVuSans-2e" x="63.623047"/>
       <use xlink:href="#DejaVuSans-34" x="95.410156"/>
      </g>
     </g>
    </g>
    <g id="ytick_4">
     <g id="line2d_10">
      <g>
       <use xlink:href="#mfeb10149df" x="47.81" y="107.272" style="stroke: #000000; stroke-width: 0.8"/>
      </g>
     </g>
     <g id="text_11">
      <!-- 0.6 -->
      <g transform="translate(24.906875 111.071219)scale(0.1 -0.1)">
       <use xlink:href="#DejaVuSans-30"/>
       <use xlink:href="#DejaVuSans-2e" x="63.623047"/>
       <use xlink:href="#DejaVuSans-36" x="95.410156"/>
      </g>
     </g>
    </g>
    <g id="ytick_5">
     <g id="line2d_11">
      <g>
       <use xlink:href="#mfeb10149df" x="47.81" y="61.016" style="stroke: #000000; stroke-width: 0.8"/>
      </g>
     </g>
     <g id="text_12">
      <!-- 0.8 -->
      <g transform="translate(24.906875 64.815219)scale(0.1 -0.1)">
       <use xlink:href="#DejaVuSans-30"/>
       <use xlink:href="#DejaVuSans-2e" x="63.623047"/>
       <use xlink:href="#DejaVuSans-38" x="95.410156"/>
      </g>
     </g>
    </g>
    <g id="ytick_6">
     <g id="line2d_12">
      <g>
       <use xlink:href="#mfeb10149df" x="47.81" y="14.76" style="stroke: #000000; stroke-width: 0.8"/>
      </g>
     </g>
     <g id="text_13">
      <!-- 1.0 -->
      <g transform="translate(24.906875 18.559219)scale(0.1 -0.1)">
       <use xlink:href="#DejaVuSans-31"/>
       <use xlink:href="#DejaVuSans-2e" x="63.623047"/>
       <use xlink:href="#DejaVuSans-30" x="95.410156"/>
      </g>
     </g>
    </g>
    <g id="text_14">
     <!-- Execution time per iteration -->
     <g transform="translate(18.827187 200.426562)rotate(-90)scale(0.1 -0.1)">
      <defs>
       <path id="DejaVuSans-45" d="M 628 4666 
L 3578 4666 
L 3578 4134 
L 1259 4134 
L 1259 2753 
L 3481 2753 
L 3481 2222 
L 1259 2222 
L 1259 531 
L 3634 531 
L 3634 0 
L 628 0 
L 628 4666 
z
" transform="scale(0.015625)"/>
       <path id="DejaVuSans-78" d="M 3513 3500 
L 2247 1797 
L 3578 0 
L 2900 0 
L 1881 1375 
L 863 0 
L 184 0 
L 1544 1831 
L 300 3500 
L 978 3500 
L 1906 2253 
L 2834 3500 
L 3513 3500 
z
" transform="scale(0.015625)"/>
       <path id="DejaVuSans-63" d="M 3122 3366 
L 3122 2828 
Q 2878 2963 2633 3030 
Q 2388 3097 2138 3097 
Q 1578 3097 1268 2742 
Q 959 2388 959 1747 
Q 959 1106 1268 751 
Q 1578 397 2138 397 
Q 2388 397 2633 464 
Q 2878 531 3122 666 
L 3122 134 
Q 2881 22 2623 -34 
Q 2366 -91 2075 -91 
Q 1284 -91 818 406 
Q 353 903 353 1747 
Q 353 2603 823 3093 
Q 1294 3584 2113 3584 
Q 2378 3584 2631 3529 
Q 2884 3475 3122 3366 
z
" transform="scale(0.015625)"/>
       <path id="DejaVuSans-75" d="M 544 1381 
L 544 3500 
L 1119 3500 
L 1119 1403 
Q 1119 906 1312 657 
Q 1506 409 1894 409 
Q 2359 409 2629 706 
Q 2900 1003 2900 1516 
L 2900 3500 
L 3475 3500 
L 3475 0 
L 2900 0 
L 2900 538 
Q 2691 219 2414 64 
Q 2138 -91 1772 -91 
Q 1169 -91 856 284 
Q 544 659 544 1381 
z
M 1991 3584 
L 1991 3584 
z
" transform="scale(0.015625)"/>
       <path id="DejaVuSans-20" transform="scale(0.015625)"/>
       <path id="DejaVuSans-6d" d="M 3328 2828 
Q 3544 3216 3844 3400 
Q 4144 3584 4550 3584 
Q 5097 3584 5394 3201 
Q 5691 2819 5691 2113 
L 5691 0 
L 5113 0 
L 5113 2094 
Q 5113 2597 4934 2840 
Q 4756 3084 4391 3084 
Q 3944 3084 3684 2787 
Q 3425 2491 3425 1978 
L 3425 0 
L 2847 0 
L 2847 2094 
Q 2847 2600 2669 2842 
Q 2491 3084 2119 3084 
Q 1678 3084 1418 2786 
Q 1159 2488 1159 1978 
L 1159 0 
L 581 0 
L 581 3500 
L 1159 3500 
L 1159 2956 
Q 1356 3278 1631 3431 
Q 1906 3584 2284 3584 
Q 2666 3584 2933 3390 
Q 3200 3197 3328 2828 
z
" transform="scale(0.015625)"/>
       <path id="DejaVuSans-70" d="M 1159 525 
L 1159 -1331 
L 581 -1331 
L 581 3500 
L 1159 3500 
L 1159 2969 
Q 1341 3281 1617 3432 
Q 1894 3584 2278 3584 
Q 2916 3584 3314 3078 
Q 3713 2572 3713 1747 
Q 3713 922 3314 415 
Q 2916 -91 2278 -91 
Q 1894 -91 1617 61 
Q 1341 213 1159 525 
z
M 3116 1747 
Q 3116 2381 2855 2742 
Q 2594 3103 2138 3103 
Q 1681 3103 1420 2742 
Q 1159 2381 1159 1747 
Q 1159 1113 1420 752 
Q 1681 391 2138 391 
Q 2594 391 2855 752 
Q 3116 1113 3116 1747 
z
" transform="scale(0.015625)"/>
      </defs>
      <use xlink:href="#DejaVuSans-45"/>
      <use xlink:href="#DejaVuSans-78" x="63.183594"/>
      <use xlink:href="#DejaVuSans-65" x="119.238281"/>
      <use xlink:href="#DejaVuSans-63" x="180.761719"/>
      <use xlink:href="#DejaVuSans-75" x="235.742188"/>
      <use xlink:href="#DejaVuSans-74" x="299.121094"/>
      <use xlink:href="#DejaVuSans-69" x="338.330078"/>
      <use xlink:href="#DejaVuSans-6f" x="366.113281"/>
      <use xlink:href="#DejaVuSans-6e" x="427.294922"/>
      <use xlink:href="#DejaVuSans-20" x="490.673828"/>
      <use xlink:href="#DejaVuSans-74" x="522.460938"/>
      <use xlink:href="#DejaVuSans-69" x="561.669922"/>
      <use xlink:href="#DejaVuSans-6d" x="589.453125"/>
      <use xlink:href="#DejaVuSans-65" x="686.865234"/>
      <use xlink:href="#DejaVuSans-20" x="748.388672"/>
      <use xlink:href="#DejaVuSans-70" x="780.175781"/>
      <use xlink:href="#DejaVuSans-65" x="843.652344"/>
      <use xlink:href="#DejaVuSans-72" x="905.175781"/>
      <use xlink:href="#DejaVuSans-20" x="946.289062"/>
      <use xlink:href="#DejaVuSans-69" x="978.076172"/>
      <use xlink:href="#DejaVuSans-74" x="1005.859375"/>
      <use xlink:href="#DejaVuSans-65" x="1045.068359"/>
      <use xlink:href="#DejaVuSans-72" x="1106.591797"/>
      <use xlink:href="#DejaVuSans-61" x="1147.705078"/>
      <use xlink:href="#DejaVuSans-74" x="1208.984375"/>
      <use xlink:href="#DejaVuSans-69" x="1248.193359"/>
      <use xlink:href="#DejaVuSans-6f" x="1275.976562"/>
      <use xlink:href="#DejaVuSans-6e" x="1337.158203"/>
     </g>
    </g>
   </g>
   <g id="line2d_13">
    <path d="M 47.81 238.310537 
L 49.269025 238.138553 
L 50.72805 238.39349 
L 52.187075 238.389999 
L 53.6461 238.219287 
L 56.56415 238.305465 
L 58.023175 238.136026 
L 59.4822 238.30146 
L 60.941225 237.961454 
L 62.40025 238.050137 
L 63.859275 238.305711 
L 65.3183 238.307785 
L 66.777325 238.05028 
L 68.23635 238.305218 
L 71.1544 238.050712 
L 72.613425 238.221629 
L 74.07245 238.221916 
L 75.531475 238.049952 
L 78.449525 238.307333 
L 79.90855 237.96131 
L 82.8266 238.223005 
L 84.285625 238.04722 
L 85.74465 238.307785 
L 87.203675 238.222594 
L 88.6627 237.965972 
L 90.121725 238.221854 
L 93.039775 237.964083 
L 94.4988 238.221916 
L 95.957825 238.222286 
L 97.41685 238.050116 
L 98.875875 238.218794 
L 104.711975 238.29764 
L 106.171 237.964308 
L 107.630025 238.219287 
L 109.08905 238.302117 
L 110.548075 238.221896 
L 112.0071 238.303288 
L 113.466125 238.13348 
L 114.92515 238.135821 
L 116.384175 237.961597 
L 117.8432 238.219102 
L 119.302225 238.050137 
L 120.76125 238.224607 
L 122.220275 237.964124 
L 123.6793 238.138553 
L 125.138325 238.133336 
L 126.59735 237.963631 
L 128.056375 238.219287 
L 130.974425 238.133233 
L 135.3515 238.2213 
L 136.810525 237.963939 
L 139.728575 238.13311 
L 142.646625 238.047651 
L 145.564675 238.139045 
L 147.0237 238.221957 
L 148.482725 238.050116 
L 149.94175 238.221916 
L 152.8598 238.04913 
L 154.318825 238.133254 
L 157.236875 237.87809 
L 158.6959 238.133541 
L 163.072975 237.878131 
L 168.909075 238.135184 
L 170.3681 237.964206 
L 171.827125 238.133233 
L 173.28615 237.966999 
L 174.745175 238.135164 
L 176.2042 237.961782 
L 177.663225 238.135205 
L 183.499325 237.878398 
L 184.95835 238.050137 
L 187.8764 237.964267 
L 189.335425 237.96359 
L 190.79445 238.13539 
L 193.7125 238.048925 
L 195.171525 237.961741 
L 196.63055 237.706413 
L 198.089575 237.878542 
L 201.007625 237.792426 
L 202.46665 238.133192 
L 205.3847 237.706311 
L 206.843725 238.05028 
L 208.30275 237.96133 
L 209.761775 237.102453 
L 211.2208 237.875605 
L 214.13885 237.703867 
L 215.597875 237.964206 
L 217.0569 237.964391 
L 218.515925 237.785156 
L 219.97495 237.964165 
L 225.81105 238.045741 
L 227.270075 237.706475 
L 228.7291 238.052047 
L 230.188125 237.79218 
L 231.64715 237.359548 
L 233.106175 238.047426 
L 237.48325 237.878316 
L 238.942275 237.961762 
L 240.4013 237.706228 
L 241.860325 237.961187 
L 243.31935 237.961351 
L 244.778375 237.617689 
L 247.696425 237.787251 
L 249.15545 237.525392 
L 250.614475 237.878028 
L 252.0735 237.964226 
L 253.532525 237.618634 
L 254.99155 237.961433 
L 257.9096 237.535044 
L 259.368625 237.875441 
L 260.82765 237.874804 
L 262.286675 237.617874 
L 263.7457 238.050095 
L 265.204725 237.706783 
L 266.66375 237.534038 
L 268.122775 237.875112 
L 269.5818 237.963528 
L 271.040825 237.446053 
L 272.49985 237.963754 
L 273.958875 237.875605 
L 275.4179 237.618737 
L 276.876925 237.875605 
L 278.33595 237.789613 
L 279.794975 237.532108 
L 281.254 237.878295 
L 282.713025 237.617545 
L 284.17205 237.623173 
L 285.631075 237.875564 
L 287.0901 237.8754 
L 288.549125 237.446156 
L 290.00815 237.789654 
L 297.303275 237.792324 
L 298.7623 237.960899 
L 301.68035 237.706434 
L 303.139375 237.792344 
L 304.5984 237.533689 
L 306.057425 237.617874 
L 307.51645 237.87848 
L 308.975475 237.876242 
L 310.4345 237.623522 
L 311.893525 237.531779 
L 313.35255 237.707707 
L 314.811575 237.704709 
L 316.2706 237.878152 
L 317.729625 237.789551 
L 319.18865 237.531984 
L 320.647675 237.792303 
L 322.1067 237.70707 
L 323.565725 237.359999 
L 325.02475 237.964247 
L 326.483775 237.703825 
L 327.9428 237.105596 
L 329.401825 237.793227 
L 330.86085 237.877515 
L 332.319875 237.447265 
L 333.7789 237.789715 
L 336.69695 237.623234 
L 336.69695 237.623234 
" clip-path="url(#p9cf96dba3f)" style="fill: none; stroke: #1f77b4; stroke-width: 1.5; stroke-linecap: square"/>
   </g>
   <g id="line2d_14">
    <path d="M 47.81 233.756593 
L 49.269025 232.717085 
L 50.72805 233.322174 
L 52.187075 231.175176 
L 53.6461 230.489784 
L 55.105125 230.128808 
L 56.56415 231.26043 
L 58.023175 229.798065 
L 59.4822 231.772318 
L 60.941225 234.186268 
L 62.40025 229.971077 
L 63.859275 223.275413 
L 65.3183 230.403134 
L 66.777325 230.142651 
L 68.23635 230.225973 
L 69.695375 227.38773 
L 71.1544 227.909579 
L 72.613425 227.484648 
L 74.07245 227.220181 
L 75.531475 216.225983 
L 76.9905 222.926761 
L 78.449525 220.78157 
L 79.90855 220.947065 
L 81.367575 220.867049 
L 82.8266 222.153424 
L 84.285625 219.753645 
L 85.74465 221.549403 
L 87.203675 220.607121 
L 88.6627 218.626275 
L 90.121725 220.09552 
L 91.58075 217.848133 
L 93.039775 219.746354 
L 94.4988 218.886471 
L 95.957825 217.857252 
L 97.41685 220.170155 
L 98.875875 219.321157 
L 100.3349 220.601514 
L 101.793925 217.859306 
L 103.25295 216.141141 
L 104.711975 215.880945 
L 106.171 217.509339 
L 107.630025 218.032441 
L 110.548075 213.731873 
L 112.0071 217.001681 
L 113.466125 219.488706 
L 114.92515 213.819016 
L 116.384175 216.660998 
L 117.8432 215.194957 
L 119.302225 212.699286 
L 122.220275 209.698874 
L 123.6793 211.583643 
L 125.138325 215.195491 
L 126.59735 211.581117 
L 128.056375 209.612944 
L 129.5154 215.712452 
L 130.974425 206.434653 
L 133.892475 213.302178 
L 135.3515 207.967853 
L 136.810525 210.38209 
L 138.26955 208.495576 
L 139.728575 216.996875 
L 141.1876 213.13502 
L 142.646625 203.935367 
L 144.10565 212.873304 
L 145.564675 207.207435 
L 147.0237 204.544256 
L 148.482725 208.663966 
L 149.94175 204.364426 
L 151.400775 210.213145 
L 152.8598 200.501297 
L 154.318825 208.152284 
L 155.77785 203.513415 
L 157.236875 199.303605 
L 158.6959 211.758134 
L 160.154925 200.076695 
L 161.61395 201.193488 
L 163.072975 195.093035 
L 164.532 201.445119 
L 165.991025 209.861576 
L 167.45005 193.112374 
L 168.909075 205.567376 
L 170.3681 200.416619 
L 171.827125 198.358201 
L 173.28615 195.351649 
L 174.745175 192.772224 
L 176.2042 206.434119 
L 177.663225 204.458305 
L 179.12225 197.930252 
L 180.581275 187.272425 
L 182.0403 197.327442 
L 183.499325 190.61888 
L 184.95835 201.278926 
L 186.417375 199.383847 
L 187.8764 195.002524 
L 189.335425 194.491724 
L 190.79445 193.632929 
L 192.253475 190.107218 
L 193.7125 198.444625 
L 195.171525 196.898116 
L 196.63055 190.792323 
L 198.089575 198.787938 
L 201.007625 184.008203 
L 202.46665 188.736288 
L 203.925675 190.19814 
L 205.3847 176.101703 
L 206.843725 177.911098 
L 208.30275 176.880174 
L 209.761775 190.884498 
L 211.2208 188.481351 
L 212.679825 181.004053 
L 214.13885 183.235072 
L 215.597875 181.347694 
L 217.0569 173.274509 
L 218.515925 181.512183 
L 219.97495 196.379184 
L 221.433975 173.274447 
L 222.893 194.661553 
L 224.352025 171.2042 
L 225.81105 172.758985 
L 227.270075 173.350643 
L 228.7291 184.862253 
L 230.188125 189.681569 
L 231.64715 161.583129 
L 233.106175 177.476268 
L 234.5652 170.522771 
L 236.024225 172.156976 
L 237.48325 165.788318 
L 238.942275 192.255058 
L 240.4013 173.532157 
L 241.860325 183.154481 
L 243.31935 183.662672 
L 244.778375 168.029195 
L 246.2374 154.542777 
L 247.696425 163.390737 
L 249.15545 150.161351 
L 250.614475 169.149109 
L 252.0735 170.606791 
L 253.532525 157.807471 
L 254.99155 155.572838 
L 256.450575 167.427186 
L 257.9096 162.446771 
L 259.368625 145.693091 
L 260.82765 152.653284 
L 262.286675 152.910912 
L 263.7457 150.848326 
L 265.204725 150.16129 
L 266.66375 158.497916 
L 268.122775 168.031125 
L 269.5818 148.698412 
L 271.040825 157.635691 
L 272.49985 143.196887 
L 273.958875 152.911405 
L 275.4179 165.107526 
L 276.876925 151.450047 
L 278.33595 155.230922 
L 279.794975 149.388035 
L 281.254 154.624497 
L 282.713025 157.461201 
L 284.17205 122.837501 
L 285.631075 125.504232 
L 287.0901 148.612111 
L 288.549125 103.338758 
L 290.00815 115.109907 
L 291.467175 70.17617 
L 292.9262 110.469519 
L 294.385225 56.691929 
L 295.84425 82.201415 
L 297.303275 55.141908 
L 298.7623 69.48593 
L 300.221325 92.00096 
L 301.68035 78.761942 
L 303.139375 67.255713 
L 304.5984 76.879227 
L 306.057425 46.375833 
L 307.51645 77.126402 
L 308.975475 93.36961 
L 310.4345 49.042421 
L 311.893525 107.373893 
L 313.35255 79.884014 
L 314.811575 67.939709 
L 316.2706 75.760791 
L 317.729625 86.671544 
L 319.18865 59.258948 
L 320.647675 68.200603 
L 322.1067 19.401785 
L 323.565725 57.716424 
L 325.02475 90.194379 
L 326.483775 55.828883 
L 327.9428 64.764478 
L 329.401825 22.400513 
L 330.86085 48.953327 
L 332.319875 30.052568 
L 333.7789 56.344427 
L 335.237925 39.07777 
L 336.69695 14.76 
L 336.69695 14.76 
" clip-path="url(#p9cf96dba3f)" style="fill: none; stroke: #ff7f0e; stroke-width: 1.5; stroke-linecap: square"/>
   </g>
   <g id="patch_3">
    <path d="M 47.81 246.04 
L 47.81 14.76 
" style="fill: none; stroke: #000000; stroke-width: 0.8; stroke-linejoin: miter; stroke-linecap: square"/>
   </g>
   <g id="patch_4">
    <path d="M 339.615 246.04 
L 339.615 14.76 
" style="fill: none; stroke: #000000; stroke-width: 0.8; stroke-linejoin: miter; stroke-linecap: square"/>
   </g>
   <g id="patch_5">
    <path d="M 47.81 246.04 
L 339.615 246.04 
" style="fill: none; stroke: #000000; stroke-width: 0.8; stroke-linejoin: miter; stroke-linecap: square"/>
   </g>
   <g id="patch_6">
    <path d="M 47.81 14.76 
L 339.615 14.76 
" style="fill: none; stroke: #000000; stroke-width: 0.8; stroke-linejoin: miter; stroke-linecap: square"/>
   </g>
   <g id="legend_1">
    <g id="patch_7">
     <path d="M 54.81 52.11625 
L 130.335 52.11625 
Q 132.335 52.11625 132.335 50.11625 
L 132.335 21.76 
Q 132.335 19.76 130.335 19.76 
L 54.81 19.76 
Q 52.81 19.76 52.81 21.76 
L 52.81 50.11625 
Q 52.81 52.11625 54.81 52.11625 
z
" style="fill: #ffffff; opacity: 0.8; stroke: #cccccc; stroke-linejoin: miter"/>
    </g>
    <g id="line2d_15">
     <path d="M 56.81 27.858438 
L 66.81 27.858438 
L 76.81 27.858438 
" style="fill: none; stroke: #1f77b4; stroke-width: 1.5; stroke-linecap: square"/>
    </g>
    <g id="text_15">
     <!-- Gradient -->
     <g transform="translate(84.81 31.358438)scale(0.1 -0.1)">
      <defs>
       <path id="DejaVuSans-47" d="M 3809 666 
L 3809 1919 
L 2778 1919 
L 2778 2438 
L 4434 2438 
L 4434 434 
Q 4069 175 3628 42 
Q 3188 -91 2688 -91 
Q 1594 -91 976 548 
Q 359 1188 359 2328 
Q 359 3472 976 4111 
Q 1594 4750 2688 4750 
Q 3144 4750 3555 4637 
Q 3966 4525 4313 4306 
L 4313 3634 
Q 3963 3931 3569 4081 
Q 3175 4231 2741 4231 
Q 1884 4231 1454 3753 
Q 1025 3275 1025 2328 
Q 1025 1384 1454 906 
Q 1884 428 2741 428 
Q 3075 428 3337 486 
Q 3600 544 3809 666 
z
" transform="scale(0.015625)"/>
       <path id="DejaVuSans-64" d="M 2906 2969 
L 2906 4863 
L 3481 4863 
L 3481 0 
L 2906 0 
L 2906 525 
Q 2725 213 2448 61 
Q 2172 -91 1784 -91 
Q 1150 -91 751 415 
Q 353 922 353 1747 
Q 353 2572 751 3078 
Q 1150 3584 1784 3584 
Q 2172 3584 2448 3432 
Q 2725 3281 2906 2969 
z
M 947 1747 
Q 947 1113 1208 752 
Q 1469 391 1925 391 
Q 2381 391 2643 752 
Q 2906 1113 2906 1747 
Q 2906 2381 2643 2742 
Q 2381 3103 1925 3103 
Q 1469 3103 1208 2742 
Q 947 2381 947 1747 
z
" transform="scale(0.015625)"/>
      </defs>
      <use xlink:href="#DejaVuSans-47"/>
      <use xlink:href="#DejaVuSans-72" x="77.490234"/>
      <use xlink:href="#DejaVuSans-61" x="118.603516"/>
      <use xlink:href="#DejaVuSans-64" x="179.882812"/>
      <use xlink:href="#DejaVuSans-69" x="243.359375"/>
      <use xlink:href="#DejaVuSans-65" x="271.142578"/>
      <use xlink:href="#DejaVuSans-6e" x="332.666016"/>
      <use xlink:href="#DejaVuSans-74" x="396.044922"/>
     </g>
    </g>
    <g id="line2d_16">
     <path d="M 56.81 42.536563 
L 66.81 42.536563 
L 76.81 42.536563 
" style="fill: none; stroke: #ff7f0e; stroke-width: 1.5; stroke-linecap: square"/>
    </g>
    <g id="text_16">
     <!-- Bayes -->
     <g transform="translate(84.81 46.036563)scale(0.1 -0.1)">
      <defs>
       <path id="DejaVuSans-42" d="M 1259 2228 
L 1259 519 
L 2272 519 
Q 2781 519 3026 730 
Q 3272 941 3272 1375 
Q 3272 1813 3026 2020 
Q 2781 2228 2272 2228 
L 1259 2228 
z
M 1259 4147 
L 1259 2741 
L 2194 2741 
Q 2656 2741 2882 2914 
Q 3109 3088 3109 3444 
Q 3109 3797 2882 3972 
Q 2656 4147 2194 4147 
L 1259 4147 
z
M 628 4666 
L 2241 4666 
Q 2963 4666 3353 4366 
Q 3744 4066 3744 3513 
Q 3744 3084 3544 2831 
Q 3344 2578 2956 2516 
Q 3422 2416 3680 2098 
Q 3938 1781 3938 1306 
Q 3938 681 3513 340 
Q 3088 0 2303 0 
L 628 0 
L 628 4666 
z
" transform="scale(0.015625)"/>
       <path id="DejaVuSans-79" d="M 2059 -325 
Q 1816 -950 1584 -1140 
Q 1353 -1331 966 -1331 
L 506 -1331 
L 506 -850 
L 844 -850 
Q 1081 -850 1212 -737 
Q 1344 -625 1503 -206 
L 1606 56 
L 191 3500 
L 800 3500 
L 1894 763 
L 2988 3500 
L 3597 3500 
L 2059 -325 
z
" transform="scale(0.015625)"/>
       <path id="DejaVuSans-73" d="M 2834 3397 
L 2834 2853 
Q 2591 2978 2328 3040 
Q 2066 3103 1784 3103 
Q 1356 3103 1142 2972 
Q 928 2841 928 2578 
Q 928 2378 1081 2264 
Q 1234 2150 1697 2047 
L 1894 2003 
Q 2506 1872 2764 1633 
Q 3022 1394 3022 966 
Q 3022 478 2636 193 
Q 2250 -91 1575 -91 
Q 1294 -91 989 -36 
Q 684 19 347 128 
L 347 722 
Q 666 556 975 473 
Q 1284 391 1588 391 
Q 1994 391 2212 530 
Q 2431 669 2431 922 
Q 2431 1156 2273 1281 
Q 2116 1406 1581 1522 
L 1381 1569 
Q 847 1681 609 1914 
Q 372 2147 372 2553 
Q 372 3047 722 3315 
Q 1072 3584 1716 3584 
Q 2034 3584 2315 3537 
Q 2597 3491 2834 3397 
z
" transform="scale(0.015625)"/>
      </defs>
      <use xlink:href="#DejaVuSans-42"/>
      <use xlink:href="#DejaVuSans-61" x="68.603516"/>
      <use xlink:href="#DejaVuSans-79" x="129.882812"/>
      <use xlink:href="#DejaVuSans-65" x="189.0625"/>
      <use xlink:href="#DejaVuSans-73" x="250.585938"/>
     </g>
    </g>
   </g>
  </g>
 </g>
 <defs>
  <clipPath id="p9cf96dba3f">
   <rect x="47.81" y="14.76" width="291.805" height="231.28"/>
  </clipPath>
 </defs>
</svg>
